<mxfile host="app.diagrams.net" agent="Mozilla/5.0 (Windows NT 10.0; Win64; x64) AppleWebKit/537.36 (KHTML, like Gecko) Chrome/139.0.0.0 Safari/537.36 Edg/139.0.0.0" version="28.1.0">
  <diagram name="Page-1" id="rwGODxcroQpbOoM4j51V">
    <mxGraphModel dx="1420" dy="551" grid="1" gridSize="10" guides="1" tooltips="1" connect="1" arrows="1" fold="1" page="1" pageScale="1" pageWidth="850" pageHeight="1100" math="0" shadow="0">
      <root>
        <mxCell id="0" />
        <mxCell id="1" parent="0" />
        <mxCell id="C2pcxlZxwBUgvvPZfeJz-1" value="&lt;div&gt;net1_student@red-internet-host&lt;/div&gt;10.50.189.76" style="whiteSpace=wrap;html=1;aspect=fixed;" vertex="1" parent="1">
          <mxGeometry x="370" y="320" width="130" height="130" as="geometry" />
        </mxCell>
        <mxCell id="C2pcxlZxwBUgvvPZfeJz-4" value="&lt;div&gt;Device type&lt;/div&gt;&lt;div&gt;&amp;nbsp; &amp;nbsp; Hostname&lt;/div&gt;&lt;div&gt;&amp;nbsp; &amp;nbsp; Interface type&lt;/div&gt;&lt;div&gt;&amp;nbsp; &amp;nbsp; Interface IP&lt;/div&gt;&lt;div&gt;&amp;nbsp; &amp;nbsp; Subnet Mask CIDR&lt;/div&gt;&lt;div&gt;&amp;nbsp; &amp;nbsp; Autonomous system number, Routing Protocol, IP network, and Network Name groupings&lt;/div&gt;&lt;div&gt;&amp;nbsp; &amp;nbsp; Open ports&lt;/div&gt;&lt;div&gt;&amp;nbsp; &amp;nbsp; Operating system type and versions&lt;/div&gt;" style="text;html=1;align=center;verticalAlign=middle;whiteSpace=wrap;rounded=0;" vertex="1" parent="1">
          <mxGeometry x="670" y="1000" width="250" height="170" as="geometry" />
        </mxCell>
        <mxCell id="C2pcxlZxwBUgvvPZfeJz-5" value="T1&lt;div&gt;10.50.20.11&lt;/div&gt;" style="whiteSpace=wrap;html=1;aspect=fixed;" vertex="1" parent="1">
          <mxGeometry x="385" y="510" width="80" height="80" as="geometry" />
        </mxCell>
        <mxCell id="C2pcxlZxwBUgvvPZfeJz-7" value="Red boundary router&lt;div&gt;&lt;div&gt;Hostname: RED-SCR&lt;/div&gt;&lt;div&gt;IP: 172.16.120.1&lt;/div&gt;&lt;div&gt;Ports: 22&lt;/div&gt;&lt;div&gt;Username: vyos&lt;/div&gt;&lt;div&gt;Password: password&lt;/div&gt;&lt;div&gt;Action: Use as start point and perform passive/active reconnaissance&lt;/div&gt;&lt;/div&gt;" style="whiteSpace=wrap;html=1;aspect=fixed;" vertex="1" parent="1">
          <mxGeometry x="20" y="310" width="230" height="230" as="geometry" />
        </mxCell>
        <mxCell id="C2pcxlZxwBUgvvPZfeJz-8" value="" style="endArrow=none;html=1;rounded=0;" edge="1" parent="1">
          <mxGeometry width="50" height="50" relative="1" as="geometry">
            <mxPoint x="20" y="310" as="sourcePoint" />
            <mxPoint x="20" y="160" as="targetPoint" />
          </mxGeometry>
        </mxCell>
        <mxCell id="C2pcxlZxwBUgvvPZfeJz-9" value="" style="endArrow=none;html=1;rounded=0;entryX=0;entryY=0.25;entryDx=0;entryDy=0;" edge="1" parent="1" target="C2pcxlZxwBUgvvPZfeJz-7">
          <mxGeometry width="50" height="50" relative="1" as="geometry">
            <mxPoint x="-200" y="360" as="sourcePoint" />
            <mxPoint x="20" y="346.79999999999995" as="targetPoint" />
          </mxGeometry>
        </mxCell>
        <mxCell id="C2pcxlZxwBUgvvPZfeJz-10" value="" style="endArrow=none;html=1;rounded=0;" edge="1" parent="1">
          <mxGeometry width="50" height="50" relative="1" as="geometry">
            <mxPoint x="-330" y="450" as="sourcePoint" />
            <mxPoint x="20" y="450" as="targetPoint" />
          </mxGeometry>
        </mxCell>
        <mxCell id="C2pcxlZxwBUgvvPZfeJz-11" value="" style="endArrow=none;html=1;rounded=0;" edge="1" parent="1">
          <mxGeometry width="50" height="50" relative="1" as="geometry">
            <mxPoint x="20" y="640" as="sourcePoint" />
            <mxPoint x="20" y="490" as="targetPoint" />
          </mxGeometry>
        </mxCell>
        <mxCell id="C2pcxlZxwBUgvvPZfeJz-13" value="172.16.120.1/29&lt;div&gt;&lt;br&gt;&lt;/div&gt;" style="text;html=1;align=center;verticalAlign=middle;whiteSpace=wrap;rounded=0;" vertex="1" parent="1">
          <mxGeometry x="20" y="270" width="100" height="30" as="geometry" />
        </mxCell>
        <mxCell id="C2pcxlZxwBUgvvPZfeJz-14" value="172.16.120.10/29&lt;div&gt;&lt;br&gt;&lt;/div&gt;" style="text;html=1;align=center;verticalAlign=middle;whiteSpace=wrap;rounded=0;" vertex="1" parent="1">
          <mxGeometry x="-80" y="350" width="100" height="30" as="geometry" />
        </mxCell>
        <mxCell id="C2pcxlZxwBUgvvPZfeJz-15" value="172.16.101.30/27&lt;div&gt;&lt;br&gt;&lt;/div&gt;" style="text;html=1;align=center;verticalAlign=middle;whiteSpace=wrap;rounded=0;" vertex="1" parent="1">
          <mxGeometry x="-90" y="430" width="90" height="30" as="geometry" />
        </mxCell>
        <mxCell id="C2pcxlZxwBUgvvPZfeJz-18" value="127.0.0.1/8&lt;div&gt;120.0.0.1/32&lt;/div&gt;&lt;div&gt;:::1/28&lt;/div&gt;" style="text;html=1;align=center;verticalAlign=middle;whiteSpace=wrap;rounded=0;" vertex="1" parent="1">
          <mxGeometry x="30" y="550" width="60" height="30" as="geometry" />
        </mxCell>
        <mxCell id="C2pcxlZxwBUgvvPZfeJz-19" value="lo" style="rounded=0;whiteSpace=wrap;html=1;" vertex="1" parent="1">
          <mxGeometry x="20" y="510" width="30" height="30" as="geometry" />
        </mxCell>
        <mxCell id="C2pcxlZxwBUgvvPZfeJz-20" value="eth2" style="rounded=0;whiteSpace=wrap;html=1;" vertex="1" parent="1">
          <mxGeometry x="20" y="420" width="30" height="30" as="geometry" />
        </mxCell>
        <mxCell id="C2pcxlZxwBUgvvPZfeJz-21" value="eth1" style="rounded=0;whiteSpace=wrap;html=1;" vertex="1" parent="1">
          <mxGeometry x="20" y="350" width="30" height="30" as="geometry" />
        </mxCell>
        <mxCell id="C2pcxlZxwBUgvvPZfeJz-23" value="eth0" style="rounded=0;whiteSpace=wrap;html=1;" vertex="1" parent="1">
          <mxGeometry x="20" y="310" width="30" height="30" as="geometry" />
        </mxCell>
        <mxCell id="C2pcxlZxwBUgvvPZfeJz-24" value="" style="endArrow=none;html=1;rounded=0;" edge="1" parent="1">
          <mxGeometry width="50" height="50" relative="1" as="geometry">
            <mxPoint x="-140" y="160" as="sourcePoint" />
            <mxPoint x="180" y="160" as="targetPoint" />
          </mxGeometry>
        </mxCell>
        <mxCell id="C2pcxlZxwBUgvvPZfeJz-35" style="edgeStyle=orthogonalEdgeStyle;rounded=0;orthogonalLoop=1;jettySize=auto;html=1;exitX=0.5;exitY=1;exitDx=0;exitDy=0;" edge="1" parent="1" source="C2pcxlZxwBUgvvPZfeJz-27">
          <mxGeometry relative="1" as="geometry">
            <mxPoint x="-125" y="160" as="targetPoint" />
          </mxGeometry>
        </mxCell>
        <mxCell id="C2pcxlZxwBUgvvPZfeJz-27" value=".1" style="ellipse;whiteSpace=wrap;html=1;aspect=fixed;" vertex="1" parent="1">
          <mxGeometry x="-150" y="80" width="50" height="50" as="geometry" />
        </mxCell>
        <mxCell id="C2pcxlZxwBUgvvPZfeJz-36" style="edgeStyle=orthogonalEdgeStyle;rounded=0;orthogonalLoop=1;jettySize=auto;html=1;exitX=0.5;exitY=1;exitDx=0;exitDy=0;" edge="1" parent="1" source="C2pcxlZxwBUgvvPZfeJz-28">
          <mxGeometry relative="1" as="geometry">
            <mxPoint x="-55" y="160" as="targetPoint" />
          </mxGeometry>
        </mxCell>
        <mxCell id="C2pcxlZxwBUgvvPZfeJz-28" value=".2" style="ellipse;whiteSpace=wrap;html=1;aspect=fixed;" vertex="1" parent="1">
          <mxGeometry x="-80" y="80" width="50" height="50" as="geometry" />
        </mxCell>
        <mxCell id="C2pcxlZxwBUgvvPZfeJz-30" style="edgeStyle=orthogonalEdgeStyle;rounded=0;orthogonalLoop=1;jettySize=auto;html=1;exitX=1;exitY=0.5;exitDx=0;exitDy=0;" edge="1" parent="1" target="C2pcxlZxwBUgvvPZfeJz-53">
          <mxGeometry relative="1" as="geometry">
            <mxPoint x="-210" y="399" as="targetPoint" />
            <mxPoint x="-600" y="404" as="sourcePoint" />
          </mxGeometry>
        </mxCell>
        <mxCell id="C2pcxlZxwBUgvvPZfeJz-43" style="edgeStyle=orthogonalEdgeStyle;rounded=0;orthogonalLoop=1;jettySize=auto;html=1;exitX=0.5;exitY=0;exitDx=0;exitDy=0;" edge="1" parent="1" source="C2pcxlZxwBUgvvPZfeJz-37">
          <mxGeometry relative="1" as="geometry">
            <mxPoint x="-325" y="450" as="targetPoint" />
          </mxGeometry>
        </mxCell>
        <mxCell id="C2pcxlZxwBUgvvPZfeJz-37" value=".2" style="ellipse;whiteSpace=wrap;html=1;aspect=fixed;" vertex="1" parent="1">
          <mxGeometry x="-350" y="490" width="50" height="50" as="geometry" />
        </mxCell>
        <mxCell id="C2pcxlZxwBUgvvPZfeJz-49" value="Text" style="text;html=1;align=center;verticalAlign=middle;whiteSpace=wrap;rounded=0;" vertex="1" parent="1">
          <mxGeometry x="-10" y="440" width="60" height="30" as="geometry" />
        </mxCell>
        <mxCell id="C2pcxlZxwBUgvvPZfeJz-50" value="Text" style="text;html=1;align=center;verticalAlign=middle;whiteSpace=wrap;rounded=0;" vertex="1" parent="1">
          <mxGeometry x="-10" y="440" width="60" height="30" as="geometry" />
        </mxCell>
        <mxCell id="C2pcxlZxwBUgvvPZfeJz-51" value="Text" style="text;html=1;align=center;verticalAlign=middle;whiteSpace=wrap;rounded=0;" vertex="1" parent="1">
          <mxGeometry x="-10" y="440" width="60" height="30" as="geometry" />
        </mxCell>
        <mxCell id="C2pcxlZxwBUgvvPZfeJz-52" value="172.16.101.0 DMZ (.1-.31)" style="text;html=1;align=center;verticalAlign=middle;whiteSpace=wrap;rounded=0;" vertex="1" parent="1">
          <mxGeometry x="-330" y="450" width="100" height="30" as="geometry" />
        </mxCell>
        <mxCell id="C2pcxlZxwBUgvvPZfeJz-53" value="172.16.120.8&lt;div&gt;REDNET (.8-.15)&lt;/div&gt;" style="text;html=1;align=center;verticalAlign=middle;whiteSpace=wrap;rounded=0;" vertex="1" parent="1">
          <mxGeometry x="-250" y="360" width="100" height="30" as="geometry" />
        </mxCell>
        <mxCell id="C2pcxlZxwBUgvvPZfeJz-54" value="172.16.120.0&lt;div&gt;Internet (.1-.7)&lt;/div&gt;" style="text;html=1;align=center;verticalAlign=middle;whiteSpace=wrap;rounded=0;" vertex="1" parent="1">
          <mxGeometry x="60" y="170" width="110" height="30" as="geometry" />
        </mxCell>
        <mxCell id="C2pcxlZxwBUgvvPZfeJz-55" value="red-dmz-host-1" style="text;html=1;align=center;verticalAlign=middle;whiteSpace=wrap;rounded=0;" vertex="1" parent="1">
          <mxGeometry x="-350" y="540" width="60" height="30" as="geometry" />
        </mxCell>
        <mxCell id="C2pcxlZxwBUgvvPZfeJz-59" value="Hostname: RED-IPS&lt;div&gt;172.16.120.9&lt;/div&gt;" style="whiteSpace=wrap;html=1;aspect=fixed;" vertex="1" parent="1">
          <mxGeometry x="-820" y="405" width="230" height="230" as="geometry" />
        </mxCell>
        <mxCell id="C2pcxlZxwBUgvvPZfeJz-60" value="eth0" style="whiteSpace=wrap;html=1;aspect=fixed;" vertex="1" parent="1">
          <mxGeometry x="-630" y="405" width="40" height="40" as="geometry" />
        </mxCell>
        <mxCell id="C2pcxlZxwBUgvvPZfeJz-61" value="172.16.120.9/29&lt;div&gt;INTERNET&lt;/div&gt;" style="text;html=1;align=center;verticalAlign=middle;whiteSpace=wrap;rounded=0;" vertex="1" parent="1">
          <mxGeometry x="-590" y="370" width="100" height="60" as="geometry" />
        </mxCell>
        <mxCell id="C2pcxlZxwBUgvvPZfeJz-62" value="eth1" style="whiteSpace=wrap;html=1;aspect=fixed;" vertex="1" parent="1">
          <mxGeometry x="-630" y="595" width="40" height="40" as="geometry" />
        </mxCell>
        <mxCell id="C2pcxlZxwBUgvvPZfeJz-63" value="" style="endArrow=classic;html=1;rounded=0;" edge="1" parent="1">
          <mxGeometry width="50" height="50" relative="1" as="geometry">
            <mxPoint x="-590" y="630" as="sourcePoint" />
            <mxPoint x="-590" y="800" as="targetPoint" />
          </mxGeometry>
        </mxCell>
        <mxCell id="C2pcxlZxwBUgvvPZfeJz-64" value="172.16.120.18/29" style="text;html=1;align=center;verticalAlign=middle;whiteSpace=wrap;rounded=0;" vertex="1" parent="1">
          <mxGeometry x="-580" y="700" width="110" height="30" as="geometry" />
        </mxCell>
        <mxCell id="C2pcxlZxwBUgvvPZfeJz-66" value="" style="endArrow=none;html=1;rounded=0;" edge="1" parent="1">
          <mxGeometry width="50" height="50" relative="1" as="geometry">
            <mxPoint x="-700" y="800" as="sourcePoint" />
            <mxPoint x="-460" y="800" as="targetPoint" />
          </mxGeometry>
        </mxCell>
        <mxCell id="C2pcxlZxwBUgvvPZfeJz-67" value="172.16.120.16 (.17-.22)&lt;div&gt;REDNET&lt;/div&gt;" style="text;html=1;align=center;verticalAlign=middle;whiteSpace=wrap;rounded=0;" vertex="1" parent="1">
          <mxGeometry x="-560" y="770" width="130" height="30" as="geometry" />
        </mxCell>
        <mxCell id="C2pcxlZxwBUgvvPZfeJz-69" style="edgeStyle=orthogonalEdgeStyle;rounded=0;orthogonalLoop=1;jettySize=auto;html=1;exitX=0.5;exitY=0;exitDx=0;exitDy=0;" edge="1" parent="1" source="C2pcxlZxwBUgvvPZfeJz-73">
          <mxGeometry relative="1" as="geometry">
            <mxPoint x="-665" y="800" as="targetPoint" />
            <mxPoint x="-485" y="860" as="sourcePoint" />
          </mxGeometry>
        </mxCell>
        <mxCell id="C2pcxlZxwBUgvvPZfeJz-70" value="RED-POP" style="text;html=1;align=center;verticalAlign=middle;whiteSpace=wrap;rounded=0;" vertex="1" parent="1">
          <mxGeometry x="-740" y="1120" width="60" height="30" as="geometry" />
        </mxCell>
        <mxCell id="C2pcxlZxwBUgvvPZfeJz-71" value="RED-POP&lt;div&gt;port: 22&lt;/div&gt;" style="whiteSpace=wrap;html=1;aspect=fixed;" vertex="1" parent="1">
          <mxGeometry x="-810" y="1080" width="230" height="230" as="geometry" />
        </mxCell>
        <mxCell id="C2pcxlZxwBUgvvPZfeJz-73" value="eth0" style="whiteSpace=wrap;html=1;aspect=fixed;" vertex="1" parent="1">
          <mxGeometry x="-620" y="1080" width="40" height="40" as="geometry" />
        </mxCell>
        <mxCell id="C2pcxlZxwBUgvvPZfeJz-74" value="172.16.120.17/29&lt;div&gt;INTERNET&lt;/div&gt;" style="text;html=1;align=center;verticalAlign=middle;whiteSpace=wrap;rounded=0;" vertex="1" parent="1">
          <mxGeometry x="-650" y="910" width="60" height="30" as="geometry" />
        </mxCell>
        <mxCell id="C2pcxlZxwBUgvvPZfeJz-75" value="eth1" style="whiteSpace=wrap;html=1;aspect=fixed;" vertex="1" parent="1">
          <mxGeometry x="-620" y="1175" width="40" height="40" as="geometry" />
        </mxCell>
        <mxCell id="C2pcxlZxwBUgvvPZfeJz-76" value="eth2" style="whiteSpace=wrap;html=1;aspect=fixed;" vertex="1" parent="1">
          <mxGeometry x="-620" y="1270" width="40" height="40" as="geometry" />
        </mxCell>
        <mxCell id="C2pcxlZxwBUgvvPZfeJz-77" value="" style="endArrow=none;html=1;rounded=0;" edge="1" parent="1">
          <mxGeometry width="50" height="50" relative="1" as="geometry">
            <mxPoint x="-580" y="1190" as="sourcePoint" />
            <mxPoint x="-320" y="1190" as="targetPoint" />
          </mxGeometry>
        </mxCell>
        <mxCell id="C2pcxlZxwBUgvvPZfeJz-78" value="" style="endArrow=none;html=1;rounded=0;" edge="1" parent="1">
          <mxGeometry width="50" height="50" relative="1" as="geometry">
            <mxPoint x="-580" y="1310" as="sourcePoint" />
            <mxPoint x="-450" y="1310" as="targetPoint" />
          </mxGeometry>
        </mxCell>
        <mxCell id="C2pcxlZxwBUgvvPZfeJz-79" value="172.16.140.6/29&lt;div&gt;REDINTDMZ&lt;/div&gt;" style="text;html=1;align=center;verticalAlign=middle;whiteSpace=wrap;rounded=0;" vertex="1" parent="1">
          <mxGeometry x="-560" y="1280" width="90" height="30" as="geometry" />
        </mxCell>
        <mxCell id="C2pcxlZxwBUgvvPZfeJz-80" value="172.16.182.126/27" style="text;html=1;align=center;verticalAlign=middle;whiteSpace=wrap;rounded=0;" vertex="1" parent="1">
          <mxGeometry x="-550" y="1170" width="110" height="30" as="geometry" />
        </mxCell>
        <mxCell id="C2pcxlZxwBUgvvPZfeJz-81" value="" style="endArrow=none;html=1;rounded=0;" edge="1" parent="1">
          <mxGeometry width="50" height="50" relative="1" as="geometry">
            <mxPoint x="-350" y="1220" as="sourcePoint" />
            <mxPoint x="43.07692307692308" y="1220" as="targetPoint" />
          </mxGeometry>
        </mxCell>
        <mxCell id="C2pcxlZxwBUgvvPZfeJz-82" value="" style="endArrow=none;html=1;rounded=0;" edge="1" parent="1">
          <mxGeometry width="50" height="50" relative="1" as="geometry">
            <mxPoint x="-560" y="1360" as="sourcePoint" />
            <mxPoint x="-370" y="1360" as="targetPoint" />
          </mxGeometry>
        </mxCell>
        <mxCell id="C2pcxlZxwBUgvvPZfeJz-83" value="172.16.182.96(.97-128) REDHOSTS" style="text;html=1;align=center;verticalAlign=middle;whiteSpace=wrap;rounded=0;" vertex="1" parent="1">
          <mxGeometry x="-290" y="1190" width="150" height="30" as="geometry" />
        </mxCell>
        <mxCell id="C2pcxlZxwBUgvvPZfeJz-84" value="172.16.140.0(.1-.6)" style="text;html=1;align=center;verticalAlign=middle;whiteSpace=wrap;rounded=0;" vertex="1" parent="1">
          <mxGeometry x="-500" y="1330" width="60" height="30" as="geometry" />
        </mxCell>
        <mxCell id="C2pcxlZxwBUgvvPZfeJz-85" value=".106" style="ellipse;whiteSpace=wrap;html=1;aspect=fixed;" vertex="1" parent="1">
          <mxGeometry x="-300" y="1230" width="40" height="40" as="geometry" />
        </mxCell>
        <mxCell id="C2pcxlZxwBUgvvPZfeJz-87" value=".110" style="ellipse;whiteSpace=wrap;html=1;aspect=fixed;" vertex="1" parent="1">
          <mxGeometry x="-200" y="1290" width="40" height="40" as="geometry" />
        </mxCell>
        <mxCell id="C2pcxlZxwBUgvvPZfeJz-88" value=".114" style="ellipse;whiteSpace=wrap;html=1;aspect=fixed;" vertex="1" parent="1">
          <mxGeometry x="-80" y="1280" width="40" height="40" as="geometry" />
        </mxCell>
        <mxCell id="C2pcxlZxwBUgvvPZfeJz-93" style="edgeStyle=orthogonalEdgeStyle;rounded=0;orthogonalLoop=1;jettySize=auto;html=1;exitX=0.5;exitY=0;exitDx=0;exitDy=0;" edge="1" parent="1" source="C2pcxlZxwBUgvvPZfeJz-89">
          <mxGeometry relative="1" as="geometry">
            <mxPoint x="20" y="1220" as="targetPoint" />
          </mxGeometry>
        </mxCell>
        <mxCell id="C2pcxlZxwBUgvvPZfeJz-89" value=".118" style="ellipse;whiteSpace=wrap;html=1;aspect=fixed;" vertex="1" parent="1">
          <mxGeometry y="1240" width="40" height="40" as="geometry" />
        </mxCell>
        <mxCell id="C2pcxlZxwBUgvvPZfeJz-90" style="edgeStyle=orthogonalEdgeStyle;rounded=0;orthogonalLoop=1;jettySize=auto;html=1;exitX=0.5;exitY=0;exitDx=0;exitDy=0;entryX=0.068;entryY=1;entryDx=0;entryDy=0;entryPerimeter=0;" edge="1" parent="1" source="C2pcxlZxwBUgvvPZfeJz-85" target="C2pcxlZxwBUgvvPZfeJz-83">
          <mxGeometry relative="1" as="geometry" />
        </mxCell>
        <mxCell id="C2pcxlZxwBUgvvPZfeJz-91" style="edgeStyle=orthogonalEdgeStyle;rounded=0;orthogonalLoop=1;jettySize=auto;html=1;exitX=0.5;exitY=0;exitDx=0;exitDy=0;entryX=0.75;entryY=1;entryDx=0;entryDy=0;" edge="1" parent="1" source="C2pcxlZxwBUgvvPZfeJz-87" target="C2pcxlZxwBUgvvPZfeJz-83">
          <mxGeometry relative="1" as="geometry" />
        </mxCell>
        <mxCell id="C2pcxlZxwBUgvvPZfeJz-92" style="edgeStyle=orthogonalEdgeStyle;rounded=0;orthogonalLoop=1;jettySize=auto;html=1;exitX=0.5;exitY=0;exitDx=0;exitDy=0;" edge="1" parent="1" source="C2pcxlZxwBUgvvPZfeJz-88">
          <mxGeometry relative="1" as="geometry">
            <mxPoint x="-60" y="1223" as="targetPoint" />
          </mxGeometry>
        </mxCell>
        <mxCell id="C2pcxlZxwBUgvvPZfeJz-95" value="22" style="text;html=1;align=center;verticalAlign=middle;whiteSpace=wrap;rounded=0;" vertex="1" parent="1">
          <mxGeometry x="-310" y="1270" width="60" height="30" as="geometry" />
        </mxCell>
        <mxCell id="C2pcxlZxwBUgvvPZfeJz-96" value="22,80" style="text;html=1;align=center;verticalAlign=middle;whiteSpace=wrap;rounded=0;" vertex="1" parent="1">
          <mxGeometry x="-210" y="1330" width="60" height="30" as="geometry" />
        </mxCell>
        <mxCell id="C2pcxlZxwBUgvvPZfeJz-97" value="22" style="text;html=1;align=center;verticalAlign=middle;whiteSpace=wrap;rounded=0;" vertex="1" parent="1">
          <mxGeometry x="-90" y="1320" width="60" height="30" as="geometry" />
        </mxCell>
        <mxCell id="C2pcxlZxwBUgvvPZfeJz-98" value="22" style="text;html=1;align=center;verticalAlign=middle;whiteSpace=wrap;rounded=0;" vertex="1" parent="1">
          <mxGeometry x="-10" y="1275" width="60" height="30" as="geometry" />
        </mxCell>
        <mxCell id="C2pcxlZxwBUgvvPZfeJz-99" value="Selected help" style="fillColor=none;strokeColor=none;html=1;fontSize=11;fontStyle=0;align=left;fontColor=#596780;fontStyle=1;fontSize=11" vertex="1" parent="1">
          <mxGeometry x="-450" y="1340" width="240" height="20" as="geometry" />
        </mxCell>
        <mxCell id="C2pcxlZxwBUgvvPZfeJz-100" value="" style="rounded=1;arcSize=9;fillColor=#ffffff;align=left;spacingLeft=5;strokeColor=#4C9AFF;html=1;strokeWidth=2;fontSize=12" vertex="1" parent="1">
          <mxGeometry x="-450" y="1365" width="290" height="33" as="geometry" />
        </mxCell>
        <mxCell id="C2pcxlZxwBUgvvPZfeJz-101" value="&lt;b&gt;Not great&lt;/b&gt;&lt;div&gt;The best password is hard to guess. Try again.&lt;/div&gt;" style="html=1;rounded=1;strokeColor=#DFE1E5;fontSize=12;align=left;shadow=1;arcSize=1;whiteSpace=wrap;verticalAlign=top;spacingLeft=15;spacingRight=15;spacingTop=10" vertex="1" parent="1">
          <mxGeometry x="-150" y="1340" width="180" height="80" as="geometry" />
        </mxCell>
      </root>
    </mxGraphModel>
  </diagram>
</mxfile>
